<svg xmlns="http://www.w3.org/2000/svg" viewBox="0 0 800 450" width="100%" height="100%">
  <rect width="800" height="450" fill="#f8fafc"/>
  <rect x="20" y="20" width="760" height="410" rx="16" fill="#ffffff" stroke="#e2e8f0" stroke-width="2"/>
  <g transform="translate(220, 95)">
    <path d="M 20 140 C 40 40 140 30 250 30 C 330 30 360 70 390 140 L 400 160 L 10 160 Z" fill="#1e293b"/>
    <path d="M 120 45 L 240 45 L 280 115 L 120 115 Z" fill="#ffffff" opacity="0.8"/>
    <circle cx="85" cy="160" r="32" fill="#0f172a"/>
    <circle cx="85" cy="160" r="15" fill="#cbd5e1"/>
    <circle cx="325" cy="160" r="32" fill="#0f172a"/>
    <circle cx="325" cy="160" r="15" fill="#cbd5e1"/>
  </g>
  <rect x="300" y="40" width="200" height="28" rx="14" fill="#e2e8f0"/>
  <text x="400" y="59" text-anchor="middle" font-family="system-ui, sans-serif" font-size="12" font-weight="800" fill="#0f172a">KIA EV9 • FLAGSHIP SUV</text>
  <text x="400" y="340" text-anchor="middle" font-family="system-ui, sans-serif" font-size="24" font-weight="900" fill="#0f172a">KIA EV9 GT-Line</text>
  <text x="400" y="370" text-anchor="middle" font-family="system-ui, sans-serif" font-size="14" font-weight="600" fill="#059669">99.8 kWh Battery • 7-Seater AWD • PKR 45.0M</text>
</svg>
